<?xml version="1.0" encoding="utf-8"?>
<!-- Generator: Adobe Illustrator 26.0.3, SVG Export Plug-In . SVG Version: 6.00 Build 0)  -->
<svg version="1.1" xmlns="http://www.w3.org/2000/svg" xmlns:xlink="http://www.w3.org/1999/xlink" x="0px" y="0px"
	 viewBox="0 0 297.5 231.4" style="enable-background:new 0 0 297.5 231.4;" xml:space="preserve">
<style type="text/css">
	.st0{fill:#FB771A;}
	.st1{fill:#383838;}
</style>
<g id="BACKGROUND">
</g>
<g id="OBJECTS">
	<g>
		<g>
			<path class="st0" d="M90.2,19.7H59.5c-1.4,0-2.6,1.2-2.6,2.6v96.5h35.9V22.3C92.8,20.9,91.7,19.7,90.2,19.7z"/>
			<rect x="56.9" y="124.7" class="st0" width="35.9" height="4.1"/>
			<path class="st0" d="M56.9,157.3c0,1.4,1.2,2.6,2.6,2.6h30.8c1.4,0,2.6-1.2,2.6-2.6v-22.5H56.9V157.3z"/>
			<path class="st0" d="M141.1,0h-35.8c-1.4,0-2.6,1.2-2.6,2.6v23.7h41V2.6C143.7,1.2,142.5,0,141.1,0z"/>
			<rect x="102.7" y="32.3" class="st0" width="41" height="4.1"/>
			<rect x="102.7" y="42.4" class="st0" width="41" height="96.5"/>
			<rect x="102.7" y="142.7" class="st0" width="41" height="2.6"/>
			<path class="st0" d="M102.7,157.3c0,1.4,1.2,2.6,2.6,2.6h35.8c1.4,0,2.6-1.2,2.6-2.6V149h-41V157.3z"/>
			<path class="st0" d="M185.5,30.2c-0.6-1.3-2.2-1.8-3.5-1.2l-25.6,12.4c-1.3,0.6-1.8,2.2-1.2,3.5l4.1,8.5l30.3-14.6L185.5,30.2z"
				/>
			
				<rect x="159.9" y="49.3" transform="matrix(0.9003 -0.4352 0.4352 0.9003 -4.4089 81.9401)" class="st0" width="33.7" height="2.6"/>
			
				<rect x="180" y="51" transform="matrix(0.9004 -0.4351 0.4351 0.9004 -20.4998 94.8162)" class="st0" width="33.7" height="82.3"/>
			
				<rect x="200.1" y="132.5" transform="matrix(0.9004 -0.4352 0.4352 0.9004 -36.5898 107.7099)" class="st0" width="33.7" height="2.6"/>
			<path class="st0" d="M240.4,143.7l-6.2-12.7l-30.3,14.6l6.2,12.7c0.6,1.3,2.2,1.8,3.5,1.2l25.6-12.4
				C240.5,146.6,241,145,240.4,143.7z"/>
		</g>
		<g>
			<g>
				<path class="st1" d="M23.2,194.5c0.9,1.2,1.3,2.7,1.3,4.5c0,1.6-0.4,3-1.2,4.1c-0.8,1.2-2,2.1-3.6,2.8c-1.5,0.7-3.3,1-5.4,1H3.5
					c-1.1,0-2-0.3-2.6-0.9c-0.6-0.6-0.9-1.5-0.9-2.6v-21.8c0-1.1,0.3-2,0.9-2.6c0.6-0.6,1.5-0.9,2.6-0.9h10.4c3,0,5.4,0.7,7.2,2
					c1.8,1.3,2.7,3.2,2.7,5.4c0,1.5-0.4,2.8-1.2,3.9c-0.8,1.1-1.9,2-3.3,2.5C21,192.4,22.3,193.3,23.2,194.5z M7.3,189.3h5.3
					c1.4,0,2.4-0.2,3.1-0.7c0.7-0.4,1-1.1,1-2.1c0-1-0.3-1.7-1-2.2c-0.7-0.5-1.7-0.7-3.1-0.7H7.3V189.3z M16.6,200.4
					c0.6-0.5,1-1.3,1-2.3c0-1.1-0.3-1.9-1-2.3c-0.6-0.5-1.7-0.7-3.2-0.7H7.3v6.1h6.1C14.9,201.1,16,200.9,16.6,200.4z"/>
				<path class="st1" d="M40.5,205.4c-2.2-1.2-3.8-2.9-5-5.1c-1.2-2.2-1.8-4.8-1.8-7.8c0-3,0.6-5.6,1.8-7.8c1.2-2.2,2.8-3.9,5-5.1
					c2.2-1.2,4.7-1.8,7.7-1.8s5.5,0.6,7.7,1.8c2.2,1.2,3.8,2.9,5,5.1c1.2,2.2,1.7,4.8,1.7,7.8c0,3-0.6,5.6-1.8,7.8
					c-1.2,2.2-2.8,3.9-5,5.1c-2.2,1.2-4.7,1.8-7.6,1.8C45.2,207.2,42.7,206.6,40.5,205.4z M53.3,199.1c1.2-1.5,1.8-3.8,1.8-6.7
					c0-2.9-0.6-5.2-1.9-6.7c-1.2-1.5-2.9-2.3-5.1-2.3c-2.2,0-3.9,0.8-5.1,2.3s-1.8,3.7-1.8,6.7c0,3,0.6,5.2,1.8,6.7
					c1.2,1.5,2.9,2.3,5.1,2.3C50.3,201.4,52,200.7,53.3,199.1z"/>
				<path class="st1" d="M79.1,205.4c-2.2-1.2-3.8-2.9-5-5.1c-1.2-2.2-1.8-4.8-1.8-7.8c0-3,0.6-5.6,1.8-7.8c1.2-2.2,2.8-3.9,5-5.1
					c2.2-1.2,4.7-1.8,7.7-1.8s5.5,0.6,7.7,1.8c2.2,1.2,3.8,2.9,5,5.1c1.2,2.2,1.7,4.8,1.7,7.8c0,3-0.6,5.6-1.8,7.8
					c-1.2,2.2-2.8,3.9-5,5.1c-2.2,1.2-4.7,1.8-7.6,1.8C83.8,207.2,81.3,206.6,79.1,205.4z M91.9,199.1c1.2-1.5,1.8-3.8,1.8-6.7
					c0-2.9-0.6-5.2-1.9-6.7c-1.2-1.5-2.9-2.3-5.1-2.3c-2.2,0-3.9,0.8-5.1,2.3s-1.8,3.7-1.8,6.7c0,3,0.6,5.2,1.8,6.7
					c1.2,1.5,2.9,2.3,5.1,2.3C88.9,201.4,90.7,200.7,91.9,199.1z"/>
				<path class="st1" d="M137.1,203.6c0,0.9-0.3,1.7-1,2.4c-0.7,0.7-1.5,1-2.4,1c-1,0-1.9-0.4-2.8-1.3l-11.6-11.9v9.6
					c0,1.1-0.3,2-1,2.7c-0.7,0.7-1.6,1-2.8,1c-1.1,0-2-0.3-2.7-1c-0.7-0.7-1-1.6-1-2.7v-21.8c0-1.1,0.3-2,1-2.7c0.7-0.7,1.6-1,2.7-1
					c1.2,0,2.1,0.3,2.8,1c0.7,0.7,1,1.6,1,2.7v9l11.5-11.6c0.7-0.7,1.5-1.1,2.4-1.1s1.7,0.3,2.4,1c0.7,0.7,1,1.4,1,2.3
					c0,0.9-0.4,1.7-1.2,2.5l-8.4,8.2l9.1,9.3C136.7,201.9,137.1,202.7,137.1,203.6z"/>
				<path class="st1" d="M150.6,206.5c-1.9-0.5-3.4-1.1-4.6-2c-0.5-0.4-0.8-0.7-1-1.1c-0.2-0.4-0.3-0.9-0.3-1.5
					c0-0.8,0.2-1.5,0.7-2.1c0.5-0.6,1.1-0.9,1.7-0.9c0.4,0,0.7,0.1,1,0.2c0.3,0.1,0.7,0.3,1.2,0.6c1.1,0.6,2.2,1.1,3.3,1.3
					c1.1,0.3,2.3,0.4,3.7,0.4c1.6,0,2.8-0.2,3.7-0.7c0.8-0.5,1.2-1.2,1.2-2.1c0-0.6-0.4-1.2-1.2-1.6c-0.8-0.4-2.3-0.9-4.4-1.3
					c-2.7-0.6-4.8-1.3-6.3-2c-1.5-0.8-2.6-1.7-3.2-2.8c-0.6-1.1-0.9-2.4-0.9-3.9c0-1.7,0.5-3.3,1.6-4.7c1-1.4,2.5-2.5,4.3-3.3
					c1.8-0.8,3.8-1.2,6.1-1.2c2,0,3.8,0.2,5.3,0.7c1.6,0.4,3,1.1,4.2,2c0.5,0.4,0.8,0.7,1,1.1c0.2,0.4,0.3,0.9,0.3,1.4
					c0,0.8-0.2,1.5-0.7,2.1c-0.5,0.6-1,0.9-1.7,0.9c-0.4,0-0.7,0-1-0.1c-0.3-0.1-0.7-0.3-1.3-0.6c-0.1-0.1-0.5-0.3-1.2-0.6
					c-0.6-0.3-1.4-0.6-2.2-0.8c-0.9-0.2-1.8-0.3-2.8-0.3c-1.4,0-2.5,0.3-3.3,0.8c-0.8,0.5-1.3,1.2-1.3,2.1c0,0.5,0.1,0.9,0.4,1.3
					c0.3,0.3,0.9,0.6,1.7,1c0.8,0.3,2,0.6,3.6,1c2.6,0.6,4.7,1.3,6.2,2.1c1.5,0.8,2.6,1.7,3.2,2.8s0.9,2.3,0.9,3.8
					c0,1.8-0.5,3.4-1.5,4.8c-1,1.4-2.4,2.4-4.2,3.2c-1.8,0.7-3.9,1.1-6.3,1.1C154.5,207.2,152.5,206.9,150.6,206.5z"/>
				<path class="st1" d="M204.5,178.8c0.7,0.7,1,1.6,1,2.7v21.8c0,1.1-0.3,2-1,2.7c-0.7,0.7-1.6,1-2.7,1s-2-0.3-2.7-1
					c-0.7-0.7-1-1.6-1-2.7v-8.2h-11.8v8.2c0,1.1-0.3,2-1,2.7c-0.7,0.7-1.6,1-2.7,1c-1.1,0-2-0.3-2.7-1c-0.7-0.7-1-1.6-1-2.7v-21.8
					c0-1.1,0.3-2,1-2.7c0.7-0.7,1.6-1,2.7-1c1.1,0,2,0.3,2.7,1c0.7,0.7,1,1.6,1,2.7v7.7h11.8v-7.7c0-1.1,0.3-2,1-2.7
					c0.7-0.7,1.6-1,2.7-1S203.8,178.2,204.5,178.8z"/>
				<path class="st1" d="M217.8,205.9c-0.6-0.6-0.9-1.5-0.9-2.6v-21.8c0-1.1,0.3-2,0.9-2.6c0.6-0.6,1.5-0.9,2.6-0.9h14.1
					c1.2,0,2.1,0.2,2.7,0.7c0.6,0.5,0.9,1.2,0.9,2.1c0,2-1.2,2.9-3.5,2.9h-10.3v5.5h9.5c2.4,0,3.6,1,3.6,2.9c0,0.9-0.3,1.6-0.9,2.1
					c-0.6,0.5-1.5,0.7-2.7,0.7h-9.5v6h10.3c2.4,0,3.5,1,3.5,2.9c0,0.9-0.3,1.6-0.9,2.1c-0.6,0.5-1.5,0.7-2.7,0.7h-14.1
					C219.2,206.8,218.3,206.5,217.8,205.9z"/>
				<path class="st1" d="M248.2,205.9c-0.6-0.6-0.9-1.5-0.9-2.6v-21.8c0-1.1,0.3-2,1-2.7c0.7-0.7,1.6-1,2.7-1c1.2,0,2.1,0.3,2.8,1
					c0.7,0.7,1,1.6,1,2.7v19.2h9.4c2.4,0,3.6,1,3.6,3.1c0,1-0.3,1.8-0.9,2.3s-1.5,0.7-2.7,0.7h-13.4
					C249.7,206.8,248.8,206.5,248.2,205.9z"/>
				<path class="st1" d="M277.8,206c-0.7-0.7-1-1.6-1-2.7v-21.8c0-1.1,0.3-2,0.9-2.6c0.6-0.6,1.5-0.9,2.6-0.9H294
					c1.2,0,2.1,0.2,2.7,0.7c0.6,0.5,0.9,1.2,0.9,2.3c0,1-0.3,1.7-0.9,2.2c-0.6,0.5-1.5,0.7-2.7,0.7h-9.8v5.3h9
					c1.2,0,2.1,0.2,2.7,0.7c0.6,0.5,0.9,1.2,0.9,2.2c0,1-0.3,1.7-0.9,2.2c-0.6,0.5-1.5,0.7-2.7,0.7h-9v8.2c0,1.1-0.3,2-1,2.7
					c-0.7,0.7-1.6,1-2.7,1C279.4,207.1,278.5,206.7,277.8,206z"/>
			</g>
			<g>
				<path class="st0" d="M35.6,230.3c0,0.3-0.1,0.5-0.4,0.7c-0.2,0.2-0.5,0.3-0.8,0.3c-0.2,0-0.4,0-0.6-0.1
					c-0.2-0.1-0.3-0.2-0.5-0.4l-2.6-3.9c-0.3-0.4-0.5-0.7-0.8-0.9c-0.3-0.2-0.7-0.3-1.1-0.3h-1.9v4.4c0,0.4-0.1,0.7-0.3,0.9
					c-0.2,0.2-0.5,0.3-0.9,0.3s-0.7-0.1-0.9-0.3c-0.2-0.2-0.3-0.5-0.3-0.9v-11.4c0-0.4,0.1-0.7,0.3-0.9c0.2-0.2,0.5-0.3,0.9-0.3h4.9
					c1.6,0,2.7,0.3,3.5,1s1.2,1.7,1.2,3c0,1.1-0.3,1.9-0.9,2.6c-0.6,0.7-1.5,1.1-2.6,1.3c0.4,0.1,0.7,0.3,1,0.5
					c0.3,0.2,0.6,0.6,0.8,1l1.8,2.7C35.5,229.9,35.6,230.1,35.6,230.3z M32.2,223.2c0.4-0.4,0.7-0.9,0.7-1.6c0-0.8-0.2-1.3-0.7-1.6
					c-0.4-0.3-1.1-0.5-2.1-0.5h-3.3v4.3h3.3C31.1,223.8,31.8,223.6,32.2,223.2z"/>
				<path class="st0" d="M48,230.9c-0.2-0.2-0.3-0.5-0.3-0.9v-11.3c0-0.4,0.1-0.7,0.3-0.9c0.2-0.2,0.5-0.3,0.9-0.3h7
					c0.4,0,0.7,0.1,0.9,0.3s0.3,0.4,0.3,0.7c0,0.3-0.1,0.6-0.3,0.7c-0.2,0.2-0.5,0.3-0.9,0.3h-5.8v3.8h5.4c0.4,0,0.7,0.1,0.9,0.3
					c0.2,0.2,0.3,0.4,0.3,0.7c0,0.3-0.1,0.6-0.3,0.7c-0.2,0.2-0.5,0.3-0.9,0.3h-5.4v4h5.8c0.4,0,0.7,0.1,0.9,0.3s0.3,0.4,0.3,0.7
					c0,0.3-0.1,0.6-0.3,0.7s-0.5,0.3-0.9,0.3h-7C48.5,231.2,48.2,231.1,48,230.9z"/>
				<path class="st0" d="M81.1,230.2c0,0.3-0.1,0.6-0.4,0.8c-0.2,0.2-0.5,0.3-0.8,0.3c-0.2,0-0.4-0.1-0.6-0.2
					c-0.2-0.1-0.3-0.3-0.4-0.5l-1.2-2.6h-6.8l-1.2,2.6c-0.1,0.2-0.2,0.4-0.4,0.5c-0.2,0.1-0.4,0.2-0.6,0.2c-0.3,0-0.6-0.1-0.8-0.3
					c-0.2-0.2-0.4-0.5-0.4-0.8c0-0.2,0-0.3,0.1-0.5l5.4-11.5c0.1-0.3,0.3-0.5,0.5-0.6c0.2-0.1,0.5-0.2,0.8-0.2s0.5,0.1,0.8,0.2
					c0.2,0.1,0.4,0.3,0.5,0.6l5.4,11.5C81.1,229.9,81.1,230,81.1,230.2z M71.8,226h5.1l-2.6-5.8L71.8,226z"/>
				<path class="st0" d="M93,230.9c-0.2-0.2-0.3-0.5-0.3-0.9v-11.3c0-0.4,0.1-0.7,0.3-0.9c0.2-0.2,0.5-0.3,0.9-0.3h3.8
					c2.2,0,4,0.6,5.2,1.8c1.2,1.2,1.9,2.9,1.9,5c0,2.2-0.6,3.9-1.9,5.1c-1.2,1.2-3,1.8-5.2,1.8h-3.8C93.5,231.2,93.2,231.1,93,230.9
					z M97.6,229.2c3.1,0,4.7-1.6,4.7-4.8c0-3.2-1.6-4.8-4.7-4.8h-2.4v9.6H97.6z"/>
				<path class="st0" d="M117.4,231c-0.2-0.2-0.3-0.5-0.3-0.9v-11.4c0-0.4,0.1-0.7,0.3-0.9c0.2-0.2,0.5-0.3,0.9-0.3
					c0.4,0,0.7,0.1,0.9,0.3c0.2,0.2,0.3,0.5,0.3,0.9V230c0,0.4-0.1,0.7-0.3,0.9c-0.2,0.2-0.5,0.3-0.9,0.3
					C117.9,231.3,117.6,231.2,117.4,231z"/>
				<path class="st0" d="M143.5,217.7c0.2,0.2,0.3,0.5,0.3,0.9V230c0,0.4-0.1,0.7-0.3,0.9c-0.2,0.2-0.5,0.3-0.9,0.3
					c-0.4,0-0.7-0.1-1-0.4l-7.1-9.2v8.4c0,0.4-0.1,0.7-0.3,0.9c-0.2,0.2-0.5,0.3-0.9,0.3c-0.4,0-0.6-0.1-0.9-0.3
					c-0.2-0.2-0.3-0.5-0.3-0.9v-11.4c0-0.4,0.1-0.7,0.3-0.9c0.2-0.2,0.5-0.3,0.9-0.3c0.4,0,0.7,0.1,0.9,0.4l7.1,9.2v-8.4
					c0-0.4,0.1-0.7,0.3-0.9c0.2-0.2,0.5-0.3,0.8-0.3C143,217.4,143.3,217.5,143.5,217.7z"/>
				<path class="st0" d="M167.6,224.1c0.2,0.2,0.3,0.4,0.3,0.7v4.2c0,0.6-0.1,1-0.2,1.3c-0.2,0.2-0.5,0.4-1,0.6
					c-0.5,0.2-1.1,0.3-1.8,0.4c-0.7,0.1-1.3,0.2-2,0.2c-1.4,0-2.6-0.3-3.7-0.8c-1-0.6-1.8-1.4-2.4-2.4c-0.6-1.1-0.8-2.3-0.8-3.8
					c0-1.4,0.3-2.7,0.8-3.7c0.6-1.1,1.3-1.9,2.3-2.4c1-0.6,2.2-0.8,3.6-0.8c1.8,0,3.3,0.5,4.5,1.5c0.2,0.1,0.3,0.3,0.3,0.4
					c0.1,0.1,0.1,0.3,0.1,0.5c0,0.3-0.1,0.5-0.2,0.7c-0.2,0.2-0.3,0.3-0.6,0.3c-0.1,0-0.3,0-0.4-0.1c-0.1,0-0.3-0.1-0.4-0.2
					c-0.6-0.4-1.1-0.7-1.6-0.8c-0.5-0.2-1-0.2-1.7-0.2c-1.4,0-2.5,0.4-3.2,1.3c-0.7,0.8-1.1,2.1-1.1,3.7c0,3.4,1.5,5.1,4.4,5.1
					c0.9,0,1.8-0.1,2.6-0.4v-3.4h-2.2c-0.3,0-0.6-0.1-0.7-0.2c-0.2-0.2-0.3-0.4-0.3-0.7c0-0.3,0.1-0.5,0.3-0.7
					c0.2-0.2,0.4-0.2,0.7-0.2h3.4C167.2,223.8,167.4,223.9,167.6,224.1z"/>
				<path class="st0" d="M198.1,230.5c-1-0.6-1.8-1.4-2.3-2.4c-0.5-1.1-0.8-2.3-0.8-3.7c0-1.4,0.3-2.7,0.8-3.7
					c0.5-1.1,1.3-1.9,2.3-2.4c1-0.6,2.1-0.9,3.5-0.9c0.9,0,1.7,0.1,2.4,0.4c0.8,0.3,1.4,0.6,2,1.1c0.2,0.1,0.3,0.3,0.3,0.4
					c0.1,0.1,0.1,0.3,0.1,0.5c0,0.3-0.1,0.5-0.2,0.7c-0.2,0.2-0.3,0.3-0.6,0.3c-0.3,0-0.5-0.1-0.8-0.3c-0.6-0.4-1.1-0.7-1.6-0.9
					c-0.5-0.2-1-0.2-1.6-0.2c-1.3,0-2.4,0.4-3.1,1.3c-0.7,0.8-1,2.1-1,3.7c0,1.6,0.3,2.9,1,3.7c0.7,0.8,1.7,1.3,3.1,1.3
					c0.6,0,1.1-0.1,1.5-0.3s1-0.5,1.6-0.9c0.1-0.1,0.3-0.1,0.4-0.2c0.1-0.1,0.3-0.1,0.4-0.1c0.2,0,0.4,0.1,0.6,0.3
					c0.2,0.2,0.2,0.4,0.2,0.7c0,0.2,0,0.4-0.1,0.5c-0.1,0.1-0.2,0.3-0.3,0.4c-0.6,0.5-1.3,0.8-2,1.1c-0.8,0.3-1.6,0.4-2.4,0.4
					C200.2,231.4,199,231.1,198.1,230.5z"/>
				<path class="st0" d="M218.6,230.9c-0.2-0.2-0.3-0.5-0.3-0.9v-11.4c0-0.4,0.1-0.7,0.3-0.9c0.2-0.2,0.5-0.3,0.9-0.3
					c0.4,0,0.7,0.1,0.9,0.3c0.2,0.2,0.3,0.5,0.3,0.9v10.5h5.5c0.8,0,1.2,0.3,1.2,1c0,0.7-0.4,1-1.2,1h-6.8
					C219.1,231.2,218.8,231.1,218.6,230.9z"/>
				<path class="st0" d="M239.6,229.9c-1-1-1.5-2.4-1.5-4.3v-7c0-0.4,0.1-0.7,0.3-0.9c0.2-0.2,0.5-0.3,0.9-0.3
					c0.4,0,0.7,0.1,0.9,0.3c0.2,0.2,0.3,0.5,0.3,0.9v7.1c0,1.2,0.3,2.1,0.8,2.7c0.6,0.6,1.4,0.9,2.4,0.9c1.1,0,1.9-0.3,2.4-0.9
					c0.6-0.6,0.8-1.5,0.8-2.7v-7.1c0-0.4,0.1-0.7,0.3-0.9c0.2-0.2,0.5-0.3,0.9-0.3c0.4,0,0.7,0.1,0.9,0.3c0.2,0.2,0.3,0.5,0.3,0.9v7
					c0,1.9-0.5,3.3-1.5,4.2c-1,1-2.4,1.5-4.3,1.5C242,231.4,240.6,230.9,239.6,229.9z"/>
				<path class="st0" d="M272.5,225.3c0.4,0.6,0.7,1.3,0.7,2.1c0,1.2-0.4,2.1-1.3,2.7c-0.8,0.7-2,1-3.4,1h-5c-0.4,0-0.7-0.1-0.9-0.3
					c-0.2-0.2-0.3-0.5-0.3-0.9v-11.3c0-0.4,0.1-0.7,0.3-0.9c0.2-0.2,0.5-0.3,0.9-0.3h4.8c1.4,0,2.5,0.3,3.4,0.9
					c0.8,0.6,1.2,1.5,1.2,2.6c0,0.7-0.2,1.4-0.6,1.9c-0.4,0.5-0.9,0.9-1.6,1.2C271.4,224.3,272,224.7,272.5,225.3z M264.6,223.3h3.2
					c1.7,0,2.6-0.6,2.6-1.9c0-0.6-0.2-1.1-0.6-1.4c-0.4-0.3-1.1-0.5-1.9-0.5h-3.2V223.3z M270.1,228.8c0.4-0.3,0.6-0.8,0.6-1.5
					c0-0.7-0.2-1.2-0.6-1.5c-0.4-0.3-1.1-0.5-2-0.5h-3.5v4h3.5C269.1,229.3,269.7,229.1,270.1,228.8z"/>
			</g>
		</g>
	</g>
</g>
</svg>
